<?xml version="1.0" standalone="no"?>
<!DOCTYPE svg PUBLIC "-//W3C//DTD SVG 20010904//EN"
 "http://www.w3.org/TR/2001/REC-SVG-20010904/DTD/svg10.dtd">
<svg version="1.0" xmlns="http://www.w3.org/2000/svg"
 width="1080.000000pt" height="1080.000000pt" viewBox="0 0 1080.000000 1080.000000"
 preserveAspectRatio="xMidYMid meet">
<metadata>
Created by potrace 1.14, written by Peter Selinger 2001-2017
</metadata>
<g transform="translate(0.000000,1080.000000) scale(0.100000,-0.100000)"
fill="#000000" stroke="none">
<path d="M7673 10076 c-375 -50 -684 -94 -686 -96 -3 -3 317 -317 710 -699
392 -381 712 -695 710 -698 -3 -2 -336 -46 -742 -98 l-738 -94 -201 183
c-1010 917 -1321 1196 -1334 1196 -35 0 -1376 -181 -1381 -186 -4 -4 51 -61
121 -128 326 -311 1287 -1250 1284 -1254 -5 -4 -2249 -291 -2281 -292 -17 0
-750 655 -1501 1342 -21 19 -28 18 -701 -72 -374 -49 -688 -90 -697 -90 -9 0
-16 -4 -16 -9 0 -4 363 -361 807 -792 715 -695 810 -784 837 -784 57 1 8236
1090 8236 1097 0 13 -1720 1568 -1733 1567 -6 -1 -319 -43 -694 -93z"/>
<path d="M300 7015 l0 -595 310 0 310 0 0 595 0 595 -310 0 -310 0 0 -595z"/>
<path d="M1241 6215 l-724 -855 -258 0 -259 0 0 -2680 0 -2680 5400 0 5400 0
0 2680 0 2680 -968 2 -968 3 667 845 c367 465 668 848 668 853 1 4 -316 7
-704 7 l-705 0 -722 -855 -723 -855 -1154 0 c-921 0 -1151 3 -1144 13 245 308
1321 1676 1327 1685 6 9 -141 12 -701 11 l-708 0 -720 -854 -720 -854 -742 0
c-409 -1 -743 1 -743 3 0 3 299 384 665 848 366 464 665 846 665 851 0 4 -316
7 -703 7 l-703 0 -723 -855z"/>
</g>
</svg>
