<?xml version="1.0" standalone="no"?>
<!DOCTYPE svg PUBLIC "-//W3C//DTD SVG 20010904//EN"
 "http://www.w3.org/TR/2001/REC-SVG-20010904/DTD/svg10.dtd">
<svg version="1.0" xmlns="http://www.w3.org/2000/svg"
 width="1080.000000pt" height="1080.000000pt" viewBox="0 0 1080.000000 1080.000000"
 preserveAspectRatio="xMidYMid meet">
<metadata>
Created by potrace 1.14, written by Peter Selinger 2001-2017
</metadata>
<g transform="translate(0.000000,1080.000000) scale(0.100000,-0.100000)"
fill="#000000" stroke="none">
<path d="M1530 5402 l0 -2843 693 2 692 1 0 1369 c0 753 2 1369 5 1369 3 0 18
-35 34 -77 15 -43 38 -105 51 -138 13 -33 39 -103 58 -155 19 -52 38 -104 43
-115 4 -11 8 -22 9 -25 1 -3 7 -18 14 -35 15 -37 41 -106 44 -120 4 -14 57
-156 68 -180 4 -11 29 -76 54 -145 25 -69 52 -141 60 -160 18 -45 473 -1260
493 -1320 l16 -45 18 42 c17 38 272 715 394 1048 31 83 66 177 78 210 13 33
103 274 200 535 98 261 181 484 186 495 6 11 23 56 39 100 l30 80 0 -1366 1
-1366 693 0 694 0 1 1061 c0 584 1 1066 1 1073 1 9 45 12 164 12 l163 -1 47
-86 c26 -48 63 -116 83 -152 20 -36 54 -99 77 -140 22 -41 49 -91 60 -110 25
-44 55 -99 97 -175 18 -33 41 -74 51 -92 10 -18 35 -63 55 -100 44 -82 200
-364 268 -485 13 -24 110 -200 216 -393 105 -192 200 -364 211 -381 l19 -31
779 0 780 0 -28 51 c-15 28 -61 107 -101 176 -40 69 -81 139 -90 155 -9 17
-72 125 -140 240 -68 116 -130 224 -140 240 -9 17 -121 208 -247 425 -127 217
-240 411 -250 430 -11 19 -60 103 -108 185 -152 258 -195 334 -195 342 0 4 26
16 58 27 332 107 590 274 812 526 51 57 154 219 203 315 47 93 112 264 123
320 1 6 6 28 12 50 6 22 13 58 17 80 3 23 7 50 9 62 23 118 23 409 1 546 -2
12 -6 39 -10 61 -20 138 -89 344 -165 496 -166 331 -454 592 -840 764 -176 78
-460 150 -680 172 -19 2 -66 6 -105 10 -38 4 -638 7 -1332 8 l-1262 1 -61
-150 c-34 -82 -74 -181 -90 -220 -16 -38 -59 -144 -95 -235 -37 -91 -73 -178
-80 -195 -7 -16 -26 -64 -43 -105 -82 -208 -394 -976 -412 -1015 -5 -11 -42
-104 -82 -207 -40 -103 -76 -187 -79 -188 -4 0 -26 48 -49 108 -24 59 -49 121
-56 137 -21 49 -57 139 -144 355 -45 113 -88 219 -95 235 -15 35 -268 657
-295 725 -41 107 -293 726 -300 740 -8 13 -96 15 -704 15 l-696 0 0 -2843z
m5680 1684 c349 -48 549 -239 596 -571 4 -26 3 -212 -1 -250 -11 -112 -72
-258 -145 -349 -75 -93 -227 -180 -352 -201 -18 -3 -40 -8 -48 -10 -48 -13
-189 -17 -574 -17 -237 0 -444 1 -461 1 l-30 1 1 693 c0 382 3 698 7 703 7 11
923 11 1007 0z"/>
</g>
</svg>
